inDegrees=no
num_controls=7
num_derivatives=13
num_iterations=74
num_multipliers=7
num_parameters=0
num_slacks=7
num_states=26
objective=0.351195
objective_accelerations=0.030379
objective_balance=0.006337
objective_effort=0.047442
objective_height=0.262535
objective_ligament=0.004502
solver_duration=1075.631579
status=Solve_Succeeded
success=true
DataType=double
version=3
OpenSimVersion=4.5
endheader
time	/jointset/ground_pelvis/pelvis_tilt/value	/jointset/ground_pelvis/pelvis_tx/value	/jointset/ground_pelvis/pelvis_ty/value	/jointset/hip_l/hip_flexion_l/value	/jointset/hip_l/hip_adduction_l/value	/jointset/hip_l/hip_rotation_l/value	/jointset/back/lumbar_extension/value	/jointset/patellofemoral_l/patellar_flexion_l/value	/jointset/knee_l/knee_flexion_l/value	/jointset/knee_l/knee_adduction_l/value	/jointset/knee_l/knee_rotation_l/value	/jointset/ankle_l/ankle_angle_l/value	/jointset/subtalar_l/subtalar_angle_l/value	/jointset/ground_pelvis/pelvis_tilt/speed	/jointset/ground_pelvis/pelvis_tx/speed	/jointset/ground_pelvis/pelvis_ty/speed	/jointset/hip_l/hip_flexion_l/speed	/jointset/hip_l/hip_adduction_l/speed	/jointset/hip_l/hip_rotation_l/speed	/jointset/back/lumbar_extension/speed	/jointset/patellofemoral_l/patellar_flexion_l/speed	/jointset/knee_l/knee_flexion_l/speed	/jointset/knee_l/knee_adduction_l/speed	/jointset/knee_l/knee_rotation_l/speed	/jointset/ankle_l/ankle_angle_l/speed	/jointset/subtalar_l/subtalar_angle_l/speed	/forceset/tau_hip_flexion_l	/forceset/tau_hip_adduction_l	/forceset/tau_hip_rotation_l	/forceset/tau_knee_flexion_l	/forceset/tau_ankle_angle_l	/forceset/tau_subtalar_angle_l	/forceset/tau_lumbar_extension	lambda_cid13_p0	lambda_cid13_p1	lambda_cid13_p2	lambda_cid13_p3	lambda_cid13_p4	lambda_cid13_p5	lambda_cid14_p0	/jointset/ground_pelvis/pelvis_tilt/accel	/jointset/ground_pelvis/pelvis_tx/accel	/jointset/ground_pelvis/pelvis_ty/accel	/jointset/hip_l/hip_flexion_l/accel	/jointset/hip_l/hip_adduction_l/accel	/jointset/hip_l/hip_rotation_l/accel	/jointset/back/lumbar_extension/accel	/jointset/patellofemoral_l/patellar_flexion_l/accel	/jointset/knee_l/knee_flexion_l/accel	/jointset/knee_l/knee_adduction_l/accel	/jointset/knee_l/knee_rotation_l/accel	/jointset/ankle_l/ankle_angle_l/accel	/jointset/subtalar_l/subtalar_angle_l/accel	gamma_cid13_p0	gamma_cid13_p1	gamma_cid13_p2	gamma_cid13_p3	gamma_cid13_p4	gamma_cid13_p5	gamma_cid14_p0
0	-0.1581251399324714	0.0578153916803607	0.8979309950939424	0.3774924667018715	-0.260114729580853	-0.256202184340235	-0.01265067647494873	0.0322364824372182	0.03223648243721463	-0.1745316688050311	0.158527579616757	-0.04231377076293093	-0.01043442496538912	0	0	0	0	0	0	0	0	0	0	0	0	0	0.181438796468445	-0.05731461732102654	-0.04138153890999276	-0.2551377874440734	0.2020819804874375	-0.0523358417272005	-0.1449690524059892	25.95445801989166	11.67177053531	5.176477241326262	34.93161647859357	-518.5276642553615	-50.44454435184763	-38.58341451461552	-3.684473889202494	-4.905577762065307	-2.294193180084215	29.41391142625721	-1.021258820051958	9.519230584215789	-14.69075105392325	32.85224348028602	32.85224348027855	6.485526460056405	1.63992937343903	9.193195338790895	0.9682855657469739	1.610997192627963e-08	3.199123892674773e-06	-5.81775497254666e-07	-4.553359518480535e-08	2.580129191266074e-06	6.387851946884919e-07	3.224848793144388e-07
0.01	-0.1582973604802474	0.05757520525002983	0.8978192540837361	0.3789245376072785	-0.2601658668418269	-0.2557259029337284	-0.01338067713457082	0.03384519207800759	0.03384519207800693	-0.1742152211184449	0.1585982702167835	-0.04186249460038378	-0.01038799180161686	-0.03419507642778239	-0.04756752028737803	-0.02228744005990073	0.2842399978169994	-0.0100779167296622	0.09444705019774131	-0.1445096953189735	0.3194543319216201	0.3194543319215842	0.06282096963199417	0.01404772704314324	0.08975944240875722	0.009318927845917787	0.1719653591708051	-0.0656744133005376	-0.04039884830849831	-0.2505495479546059	0.1988136898884652	-0.04019848517822679	-0.1356336829885728	25.31310913878816	6.806249296031951	5.616998012355376	32.22975667290454	-521.7924773288563	-59.55878759679764	-38.63035756789916	-3.249759991332125	-4.611883402268425	-2.186389095904666	27.60287198608442	-0.9791682308289996	9.286304355454556	-14.10751327985469	31.14882411568702	31.14882411568632	6.110597213618743	1.273944084483313	8.792965221098697	0.9181069761152391	-1.26647367615232e-07	3.453529110875838e-06	-3.764268340965258e-07	1.737749151253745e-07	1.918894219263707e-06	5.498582667064204e-07	3.317182711441278e-07
0.02	-0.1588040788866585	0.05687343476878595	0.8974865647375384	0.3831337740961855	-0.2603134052963786	-0.2543293786016639	-0.01551106164917786	0.0385798042515336	0.03857980425153324	-0.1732845207357582	0.1588067880301831	-0.04052849470791283	-0.01024748724296521	-0.06689957172618674	-0.09231681018260467	-0.04418966719828329	0.5554331167005195	-0.01928023871555029	0.1840485851115326	-0.2800767709967423	0.6251805065467211	0.6251805065466881	0.1228505392179008	0.02756544267554146	0.1765447459847357	0.01881427897587761	0.1624919218731708	-0.07403420928004831	-0.03941615770703018	-0.2459613084651305	0.1955453992894959	-0.02806112862925156	-0.1262983135711525	24.99333269206268	1.907485148725629	6.036477313025175	29.00644815752034	-520.1846647297514	-68.2339309422205	-38.76654935282178	-3.386357663326766	-4.341931683635135	-2.217150595780584	26.80453563956137	-0.8461398712971342	8.55012752742577	-12.90222712568224	30.10661202098223	30.1066120209825	5.927246450838889	1.533927091290038	8.598367572235038	1.003570222555352	-2.694047071567436e-07	3.707934329076903e-06	-1.710781709383855e-07	3.930834254355543e-07	1.257659247261339e-06	4.60931338724349e-07	3.409516629738168e-07
0.03	-0.1596319681870087	0.05573855810489988	0.8969345902740059	0.3899926286405546	-0.2605465205922532	-0.2520643862596506	-0.0189497797651703	0.04630475777307975	0.04630475777307937	-0.1717661105399458	0.1591492778792646	-0.03834077799963088	-0.01000913373796641	-0.09836694311483558	-0.1341511413905775	-0.06631149412511614	0.8141055407384334	-0.02710713503041353	0.2680990679046975	-0.4061542857161156	0.9175238461891682	0.9175238461891554	0.1803083568345459	0.04069677188266883	0.260517315888605	0.02896077075185289	0.151618199883785	-0.06881924974125492	-0.03822512967979132	-0.240672838930856	0.1942968771280711	-0.0290675117701683	-0.1161598007191577	24.97542080378268	2.343002319270299	5.972401058444615	25.73317846911232	-515.8619021283041	-65.38655327050031	-38.98203356057776	-2.980286627948526	-4.027997156277927	-2.225390173480116	25.06371325022754	-0.7162660932036942	8.20508980284851	-12.2336286720241	28.45517397227878	28.45517397228163	5.577214212946988	1.167643412542058	8.224513258640622	1.035283169399646	-2.458042784433652e-07	3.605908052046871e-06	-4.515630361236103e-07	4.246643540153522e-07	1.140702203211054e-06	6.52369227704058e-07	3.604284331562229e-07
